<?xml version="1.0" standalone="no"?>
<!DOCTYPE svg PUBLIC "-//W3C//DTD SVG 20010904//EN"
 "http://www.w3.org/TR/2001/REC-SVG-20010904/DTD/svg10.dtd">
<svg version="1.0" xmlns="http://www.w3.org/2000/svg"
 width="1000.000000pt" height="1000.000000pt" viewBox="0 0 1000.000000 1000.000000"
 preserveAspectRatio="xMidYMid meet">
<metadata>
Created by potrace 1.11, written by Peter Selinger 2001-2013
</metadata>
<g transform="translate(0.000000,1000.000000) scale(0.100000,-0.100000)"
fill="#000000" stroke="none">
<path d="M4998 9796 c-98 -50 -110 -59 -195 -145 -191 -193 -350 -574 -418
-1001 -3 -19 -7 -46 -10 -60 -44 -255 -52 -698 -15 -890 14 -77 15 -79 50
-235 45 -200 79 -373 105 -540 4 -22 12 -101 19 -175 55 -596 -108 -916 -494
-967 -178 -24 -333 6 -437 84 -56 43 -63 51 -107 118 -80 123 -110 256 -110
495 0 138 6 218 29 366 30 198 34 218 86 434 17 69 32 133 34 143 2 10 9 32
14 50 6 18 43 140 82 272 40 132 85 283 100 335 16 52 32 111 35 130 3 19 9
60 14 90 5 30 12 80 16 110 3 30 8 66 10 80 3 14 6 122 8 240 4 238 -3 330
-40 490 -43 188 -128 349 -244 458 -44 42 -166 122 -186 122 -5 0 5 -46 24
-102 35 -108 76 -272 87 -348 3 -25 10 -61 14 -80 16 -72 9 -360 -10 -475 -45
-263 -157 -517 -366 -832 -43 -65 -82 -122 -86 -128 -33 -42 -223 -324 -287
-425 -157 -253 -276 -528 -306 -710 -3 -14 -7 -31 -9 -38 -2 -7 -7 -34 -11
-60 -3 -26 -9 -74 -14 -107 -8 -62 -5 -373 4 -435 3 -19 8 -53 11 -75 3 -22
10 -67 15 -100 6 -33 13 -76 15 -95 5 -33 74 -316 109 -444 23 -81 143 -443
199 -596 25 -69 91 -249 147 -400 304 -821 363 -1119 257 -1305 -27 -48 -94
-100 -150 -117 -46 -14 -260 -17 -317 -6 -299 62 -459 282 -497 684 -10 106
-9 405 1 589 5 83 10 170 11 195 2 25 6 104 11 175 14 228 9 570 -11 685 -2
14 -7 52 -10 84 -40 418 -195 733 -431 876 -67 40 -182 87 -232 95 -21 3 -53
10 -70 15 -37 10 -42 -1 -9 -23 87 -59 189 -202 235 -330 36 -99 69 -254 79
-371 13 -148 7 -495 -11 -631 -2 -16 -7 -60 -10 -96 -4 -36 -8 -76 -10 -90 -4
-22 -7 -48 -22 -157 -11 -84 -51 -342 -69 -447 -7 -44 -16 -100 -20 -125 -3
-25 -10 -61 -15 -80 -5 -19 -12 -60 -16 -90 -4 -30 -8 -57 -9 -60 -1 -3 -5
-30 -9 -60 -5 -30 -10 -64 -12 -75 -7 -32 -14 -82 -34 -220 -6 -44 -13 -91
-15 -105 -3 -14 -7 -50 -10 -80 -3 -30 -8 -68 -10 -85 -18 -125 -25 -406 -13
-529 12 -134 23 -211 44 -321 117 -606 414 -1138 859 -1534 55 -48 252 -198
300 -228 236 -146 414 -231 649 -312 163 -56 427 -122 586 -146 25 -4 52 -9
60 -10 18 -3 175 -22 249 -30 91 -9 211 -16 350 -19 l132 -3 -59 61 c-282 292
-497 590 -642 891 -107 223 -168 417 -197 630 -13 92 -6 402 11 490 2 11 7 42
10 68 4 27 9 57 11 67 2 9 6 34 9 53 8 49 60 276 84 367 11 41 30 111 41 155
12 44 26 91 30 105 42 117 119 458 128 565 9 112 9 127 1 185 -13 86 -35 141
-79 199 l-41 54 43 -7 c169 -27 291 -186 372 -486 50 -184 81 -466 64 -580
-10 -62 -20 -220 -21 -305 -1 -299 72 -489 201 -524 140 -39 279 30 356 176
35 66 68 178 82 278 11 73 13 283 4 351 -4 32 -11 81 -14 108 -4 27 -8 58 -11
69 -18 98 -25 440 -10 547 17 123 61 277 112 389 69 151 230 346 384 466 l65
50 -48 -65 c-130 -179 -248 -465 -282 -685 -3 -22 -8 -56 -11 -75 -10 -67 -12
-305 -3 -370 40 -292 160 -503 343 -604 79 -44 164 -68 235 -67 305 6 591 354
593 721 1 199 -75 358 -232 483 l-35 28 45 -7 c136 -19 259 -100 349 -229 127
-181 210 -492 236 -880 6 -84 6 -427 1 -505 -12 -162 -18 -237 -21 -250 -2 -8
-7 -40 -10 -70 -8 -67 -20 -147 -40 -255 -56 -308 -150 -520 -353 -800 -144
-198 -360 -431 -582 -628 -175 -155 -169 -149 -150 -143 8 2 58 7 110 10 52 3
104 8 116 10 12 2 45 7 74 11 29 4 62 9 74 11 12 3 39 7 61 10 62 8 353 81
462 115 149 47 408 152 545 221 838 421 1360 1053 1454 1758 10 74 11 374 1
485 -26 307 -95 593 -214 895 -59 149 -216 456 -327 640 -49 80 -96 159 -106
175 -9 17 -49 82 -87 145 -154 255 -247 443 -302 610 -34 101 -35 107 -56 225
-11 59 -13 138 -11 295 3 118 6 224 9 235 2 11 8 52 12 90 4 39 8 77 10 85 2
8 6 44 10 80 3 36 8 76 10 90 2 14 7 54 10 90 4 36 8 72 10 80 17 91 23 442
11 570 -42 420 -241 743 -604 977 -46 30 -91 57 -100 60 -10 4 -28 14 -42 22
-14 9 -43 25 -64 34 l-39 18 46 -48 c202 -214 341 -515 375 -813 9 -75 9 -281
0 -355 -47 -403 -288 -724 -588 -784 -133 -26 -248 -16 -313 29 -44 31 -83 89
-105 160 -13 42 -17 94 -17 220 0 185 9 298 44 521 5 35 13 84 16 109 8 54 15
106 20 140 2 14 6 43 9 65 3 22 12 90 20 150 8 61 17 133 20 160 27 237 27
617 1 760 -72 396 -221 623 -515 781 -90 49 -99 49 -54 2 82 -85 143 -190 192
-329 32 -90 33 -94 58 -229 26 -142 23 -455 -6 -585 -5 -22 -11 -54 -15 -72
-9 -54 -65 -214 -97 -277 -120 -237 -302 -361 -508 -343 -244 20 -460 351
-560 857 -4 25 -11 65 -15 90 -3 25 -8 56 -10 70 -16 103 -22 377 -10 485 43
409 160 685 379 896 28 27 46 49 40 49 -6 0 -49 -20 -96 -44z"/>
</g>
</svg>
